<svg width="30.000000" height="30.000000" viewBox="0 0 30 30" fill="none" xmlns="http://www.w3.org/2000/svg" xmlns:xlink="http://www.w3.org/1999/xlink">
	<desc>
			Created with Pixso.
	</desc>
	<defs>
		<clipPath id="clip312_577">
			<rect id="instagram 1" width="30.000000" height="30.000000" fill="white" fill-opacity="0"/>
		</clipPath>
	</defs>
	<rect id="instagram 1" width="30.000000" height="30.000000" fill="#FFFFFF" fill-opacity="0"/>
	<g clip-path="url(#clip312_577)">
		<path id="Vector" d="M15 8.26C10.74 8.26 7.31 11.26 7.31 14.99C7.31 18.72 10.74 21.72 15 21.72C19.26 21.72 22.7 18.72 22.7 14.99C22.7 11.26 19.26 8.26 15 8.26ZM15 19.37C12.25 19.37 10 17.4 10 14.99C10 12.58 12.24 10.61 15 10.61C17.76 10.61 20 12.58 20 14.99C20 17.4 17.75 19.37 15 19.37ZM24.81 7.98C24.81 8.85 24 9.55 23.01 9.55C22.01 9.55 21.22 8.85 21.22 7.98C21.22 7.11 22.02 6.41 23.01 6.41C24 6.41 24.81 7.11 24.81 7.98ZM29.9 9.58C29.79 7.47 29.24 5.61 27.48 4.07C25.72 2.54 23.59 2.06 21.19 1.95C18.71 1.83 11.29 1.83 8.81 1.95C6.41 2.05 4.28 2.53 2.52 4.07C0.76 5.6 0.22 7.47 0.1 9.57C-0.05 11.74 -0.05 18.24 0.1 20.4C0.21 22.51 0.76 24.37 2.52 25.91C4.28 27.44 6.4 27.92 8.81 28.03C11.29 28.15 18.71 28.15 21.19 28.03C23.59 27.93 25.72 27.45 27.48 25.91C29.23 24.37 29.78 22.51 29.9 20.4C30.04 18.24 30.04 11.74 29.9 9.58ZM26.7 22.73C26.18 23.88 25.17 24.76 23.85 25.23C21.87 25.91 17.18 25.75 15 25.75C12.82 25.75 8.12 25.91 6.16 25.23C4.84 24.77 3.83 23.88 3.3 22.73C2.52 21 2.7 16.9 2.7 14.99C2.7 13.08 2.53 8.97 3.3 7.25C3.83 6.1 4.84 5.22 6.16 4.75C8.13 4.07 12.82 4.23 15 4.23C17.18 4.23 21.88 4.07 23.85 4.75C25.16 5.21 26.17 6.09 26.7 7.25C27.48 8.98 27.3 13.08 27.3 14.99C27.3 16.9 27.48 21.01 26.7 22.73Z" fill="#98A2B3" fill-opacity="1.000000" fill-rule="nonzero"/>
	</g>
</svg>
