<svg width="27.000000" height="21.000000" viewBox="0 0 27 21" fill="none" xmlns="http://www.w3.org/2000/svg" xmlns:xlink="http://www.w3.org/1999/xlink">
	<desc>
			Created with Pixso.
	</desc>
	<defs/>
	<path id="Subtract" d="M6.31543 0.291504L20.6846 0.291504C23.4551 0.291504 24.8398 0.291504 25.7129 1.13721C25.7354 1.15918 25.7578 1.18115 25.7793 1.20361C26.625 2.07617 26.625 3.46143 26.625 6.23145L26.625 14.7681C26.625 17.5381 26.625 18.9233 25.7793 19.7959C25.7578 19.8184 25.7354 19.8408 25.7129 19.8623C24.8398 20.708 23.4551 20.708 20.6846 20.708L6.31543 20.708C3.54492 20.708 2.16016 20.708 1.28711 19.8623C1.26465 19.8408 1.24219 19.8184 1.2207 19.7959C0.375 18.9233 0.375 17.5381 0.375 14.7681L0.375 6.23145C0.375 3.46143 0.375 2.07617 1.2207 1.20361C1.24219 1.18115 1.26465 1.15918 1.28711 1.13721C2.16016 0.291504 3.54492 0.291504 6.31543 0.291504ZM22.8047 6.95703L14.6094 12.4204Q14.3574 12.5884 14.0801 12.6724Q13.8027 12.7563 13.5 12.7563Q13.1973 12.7563 12.9199 12.6724Q12.6426 12.5884 12.3906 12.4204L4.19531 6.95703C3.72949 6.64648 3.60742 6.03613 3.91797 5.57031C4.22852 5.104 4.83887 4.98193 5.30469 5.29297L13.5 10.7563L21.6953 5.29297C22.1611 4.98193 22.7715 5.104 23.082 5.57031C23.3926 6.03613 23.2705 6.64648 22.8047 6.95703Z" clip-rule="evenodd" fill="#98A2B3" fill-opacity="1.000000" fill-rule="evenodd"/>
</svg>
