<svg width="21.000000" height="18.000000" viewBox="0 0 21 18" fill="none" xmlns="http://www.w3.org/2000/svg" xmlns:xlink="http://www.w3.org/1999/xlink">
	<desc>
			Created with Pixso.
	</desc>
	<defs/>
	<rect id="Phone_fill" width="21.000000" height="17.000000" fill="#FFFFFF" fill-opacity="0"/>
	<path id="Vector 189" d="M4.29 0.7L3.67 1.32C1.56 3.43 1.33 6.77 3.12 9.16L4.02 10.37C5.33 12.11 6.88 13.66 8.62 14.97L9.83 15.87C12.22 17.66 15.56 17.43 17.67 15.32L18.29 14.7C18.68 14.31 18.68 13.68 18.29 13.29L15.7 10.7C15.31 10.31 14.68 10.31 14.29 10.7L12.5 12.49C12.2 12.79 11.74 12.87 11.36 12.68C9.18 11.59 7.4 9.81 6.31 7.63C6.12 7.25 6.2 6.79 6.5 6.49L8.29 4.7C8.68 4.31 8.68 3.68 8.29 3.29L5.7 0.7C5.31 0.31 4.68 0.31 4.29 0.7Z" fill="#98A2B3" fill-opacity="1.000000" fill-rule="evenodd"/>
</svg>
