<svg width="47" height="4" viewBox="0 0 47 4" fill="none" xmlns="http://www.w3.org/2000/svg">
<path d="M3.78788 1.89394C3.78788 2.93993 2.93993 3.78788 1.89394 3.78788C0.847946 3.78788 0 2.93993 0 1.89394C0 0.847946 0.847946 0 1.89394 0C2.93993 0 3.78788 0.847946 3.78788 1.89394Z" fill="#4757E3"/>
<path d="M46.7879 1.89394C46.7879 2.93993 45.9399 3.78788 44.8939 3.78788C43.8479 3.78788 43 2.93993 43 1.89394C43 0.847946 43.8479 0 44.8939 0C45.9399 0 46.7879 0.847946 46.7879 1.89394Z" fill="#59B4FF"/>
<path d="M7 2C7 0.895431 7.89543 0 9 0H38C39.1046 0 40 0.895431 40 2C40 3.10457 39.1046 4 38 4H9C7.89543 4 7 3.10457 7 2Z" fill="url(#paint0_linear_312_630)"/>
<defs>
<linearGradient id="paint0_linear_312_630" x1="7" y1="2.33334" x2="39.5664" y2="2.08194" gradientUnits="userSpaceOnUse">
<stop stop-color="#4757E3"/>
<stop offset="0.525" stop-color="#3392D4"/>
<stop offset="1" stop-color="#4DAFFF"/>
</linearGradient>
</defs>
</svg>
