<svg width="20.000000" height="24.000000" viewBox="0 0 20 24" fill="none" xmlns="http://www.w3.org/2000/svg" xmlns:xlink="http://www.w3.org/1999/xlink">
	<desc>
			Created with Pixso.
	</desc>
	<defs/>
	<path id="Subtract" d="M19.708 10.0413C19.708 17.573 11.7949 22.0164 9.90234 22.9712C9.64844 23.0996 9.35059 23.0996 9.09668 22.9712C7.2041 22.0164 -0.708984 17.573 -0.708984 10.0413C-0.708984 4.40332 3.86133 -0.166992 9.49902 -0.166992C15.1377 -0.166992 19.708 4.40332 19.708 10.0413ZM9.49902 5.66626C7.08301 5.66626 5.12402 7.625 5.12402 10.0413C5.12402 12.4575 7.08301 14.4163 9.49902 14.4163C11.916 14.4163 13.874 12.4575 13.874 10.0413C13.874 7.625 11.916 5.66626 9.49902 5.66626Z" clip-rule="evenodd" fill="#98A2B3" fill-opacity="1.000000" fill-rule="evenodd"/>
</svg>
