<svg width="30.000000" height="30.000000" viewBox="0 0 30 30" fill="none" xmlns="http://www.w3.org/2000/svg" xmlns:xlink="http://www.w3.org/1999/xlink">
	<desc>
			Created with Pixso.
	</desc>
	<defs>
		<clipPath id="clip312_575">
			<rect id="telegram 1" width="30.000000" height="30.000000" fill="white" fill-opacity="0"/>
		</clipPath>
	</defs>
	<rect id="telegram 1" width="30.000000" height="30.000000" fill="#FFFFFF" fill-opacity="0"/>
	<g clip-path="url(#clip312_575)">
		<path id="Vector" d="M15 1C6.71 1 0 7.5 0 15.53C0 23.55 6.71 30.06 15 30.06C23.28 30.06 30 23.55 30 15.53C30 7.5 23.28 1 15 1ZM21.95 10.88C21.72 13.18 20.75 18.75 20.25 21.32C20.04 22.41 19.62 22.78 19.22 22.81C18.35 22.89 17.69 22.26 16.85 21.72C15.53 20.88 14.78 20.36 13.5 19.54C12.02 18.6 12.98 18.08 13.82 17.23C14.04 17.01 17.88 13.62 17.96 13.32C17.96 13.28 17.97 13.14 17.89 13.06C17.8 12.99 17.67 13.01 17.58 13.03C17.44 13.06 15.33 14.41 11.25 17.08C10.65 17.48 10.11 17.67 9.62 17.66C9.09 17.65 8.06 17.37 7.29 17.13C6.35 16.83 5.6 16.68 5.67 16.18C5.7 15.91 6.08 15.65 6.79 15.37C11.16 13.53 14.07 12.31 15.53 11.72C19.7 10.04 20.56 9.75 21.13 9.74C21.25 9.74 21.53 9.77 21.71 9.91C21.83 10.01 21.91 10.15 21.92 10.31C21.95 10.49 21.96 10.69 21.95 10.88Z" fill="#98A2B3" fill-opacity="1.000000" fill-rule="nonzero"/>
	</g>
</svg>
